<?xml version="1.0"?>
<svg xmlns="http://www.w3.org/2000/svg" xmlns:xlink="http://www.w3.org/1999/xlink" xmlns:svgjs="http://svgjs.com/svgjs" version="1.1" width="512" height="512" x="0" y="0" viewBox="0 0 24 24" style="enable-background:new 0 0 512 512" xml:space="preserve" class=""><g><path xmlns="http://www.w3.org/2000/svg" d="m17 14h-1v-8c0-1.104.896-2 2-2s2 .896 2 2v5c0 1.657-1.343 3-3 3z" fill="#00bcd4" data-original="#00bcd4" style="" class=""/><path xmlns="http://www.w3.org/2000/svg" d="m4.5 9h-1.5c-1.654 0-3-1.346-3-3v-1c0-.552.447-1 1-1s1 .448 1 1v1c0 .551.448 1 1 1h1.5c.553 0 1 .448 1 1s-.447 1-1 1z" fill="#607d8b" data-original="#607d8b" style="" class=""/><path xmlns="http://www.w3.org/2000/svg" d="m21 9h-5.5c-.553 0-1-.448-1-1s.447-1 1-1h5.5c.552 0 1-.449 1-1v-1c0-.552.447-1 1-1s1 .448 1 1v1c0 1.654-1.346 3-3 3z" fill="#607d8b" data-original="#607d8b" style="" class=""/><path xmlns="http://www.w3.org/2000/svg" d="m13 20h-6c-1.657 0-3-1.343-3-3v-11c0-1.104.896-2 2-2h12c-1.104 0-2 .896-2 2v11c0 1.657-1.343 3-3 3z" fill="#4dd0e1" data-original="#4dd0e1" style="" class=""/><path xmlns="http://www.w3.org/2000/svg" d="m1 4c-.553 0-1 .448-1 1v1c0 1.654 1.346 3 3 3h1v-2h-1c-.552 0-1-.449-1-1v-1c0-.552-.447-1-1-1z" fill="#546d79" data-original="#546d79" style="" class=""/><path xmlns="http://www.w3.org/2000/svg" d="m12 4h-6c-1.104 0-2 .896-2 2v1 2 8c0 1.657 1.343 3 3 3h5z" fill="#43b5c4" data-original="#43b5c4" style="" class=""/></g></svg>
